<?xml version="1.0" encoding="utf-8"?>
<svg xmlns="http://www.w3.org/2000/svg" viewBox="0 0 500 500">
  <defs>
    <radialGradient gradientUnits="userSpaceOnUse" cx="830" cy="1097.109" r="510" id="gradient-0" gradientTransform="matrix(1, 0, 0, 1, -418.346012, 0)">
      <stop offset="0" style="stop-color: rgb(98.039% 78.824% 0%)"/>
      <stop offset="1" style="stop-color: rgb(58.235% 44.596% 0%)"/>
    </radialGradient>
    <radialGradient gradientUnits="userSpaceOnUse" cx="1309.518" cy="1607.5" r="190.482" id="gradient-1" gradientTransform="matrix(1, 0, 0, 1, -418.346012, 0)">
      <stop offset="0" style="stop-color: rgb(98.039% 78.824% 0%)"/>
      <stop offset="1" style="stop-color: rgb(58.235% 44.596% 0%)"/>
    </radialGradient>
    <radialGradient gradientUnits="userSpaceOnUse" cx="1408.239" cy="1224.455" r="376.024" id="gradient-2" gradientTransform="matrix(1, 0, 0, 1, -418.346012, 0)">
      <stop offset="0" style="stop-color: rgb(98.039% 78.824% 0%)"/>
      <stop offset="1" style="stop-color: rgb(58.235% 44.596% 0%)"/>
    </radialGradient>
    <radialGradient gradientUnits="userSpaceOnUse" cx="1289.839" cy="620.62" r="509.939" id="gradient-3" gradientTransform="matrix(1, 0, 0, 1, -418.346012, 0)">
      <stop offset="0" style="stop-color: rgb(98.039% 78.824% 0%)"/>
      <stop offset="1" style="stop-color: rgb(58.235% 44.596% 0%)"/>
    </radialGradient>
  </defs>
  <g transform="matrix(0.276885, 0, 0, -0.262925, 94.783348, 532.472168)" fill="#000000" stroke="none" style="">
    <path d="M -269.953 1905.885 C -269.953 1893.885 -85.32 1660 -50.32 1655 C 60.68 1638 56.68 1658 56.68 1105 C 56.68 685 54.68 642 38.68 613 C 18.68 575 -1.32 563 -57.32 554 C -85.32 549 -98.32 542 -98.32 531 C -98.32 517 -77.32 515 88.68 516 C 248.68 517 276.68 520 279.68 532 C 281.68 544 269.68 549 227.68 554 C 161.68 563 125.68 588 111.68 638 C 104.68 663 101.68 827 103.68 1125 L 106.68 1576 L 495.68 1038 C 772.68 654 889.68 500 902.68 500 C 920.68 500 921.68 515 921.68 915 C 921.68 1322 921.68 1330 901.68 1330 C 882.68 1330 881.68 1322 879.68 1084 L 876.68 838 L 740.68 1026 C 666.68 1130 527.68 1322 433.68 1454 L 261.68 1693 L -24.851 1761.452 C -184.851 1762.452 -269.953 1919.885 -269.953 1905.885 Z" style="fill: url(&quot;#gradient-0&quot;);"/>
    <path d="M 705.68 1691 C 690.68 1675 709.68 1662 762.68 1652 C 836.68 1638 858.68 1620 873.68 1563 C 882.68 1527 887.68 1520 907.68 1520 C 926.68 1520 931.68 1525 931.68 1545 C 931.68 1578 956.68 1627 979.68 1639 C 988.68 1644 1015.68 1651 1039.68 1655 C 1069.68 1660 1081.68 1667 1081.68 1678 C 1081.68 1693 1062.68 1695 895.68 1695 C 793.68 1695 707.68 1693 705.68 1691 Z" style="fill: url(&quot;#gradient-1&quot;);"/>
    <path d="M 786.68 1426 C 726.68 1409 653.68 1378 627.68 1357 C 608.68 1343 608.68 1342 631.68 1309 C 644.68 1290 656.68 1273 658.68 1271 C 659.68 1269 683.68 1288 711.68 1314 C 782.68 1381 838.68 1403 932.68 1404 C 1105.68 1404 1252.68 1279 1300.68 1089 C 1315.68 1029 1323.68 1014 1340.68 1012 C 1360.68 1009 1361.68 1012 1363.68 1154 C 1367.68 1431 1368.68 1415 1346.68 1415 C 1331.68 1415 1325.68 1406 1319.68 1371 C 1311.68 1323 1296.68 1300 1274.68 1300 C 1266.68 1300 1234.68 1320 1203.68 1344 C 1111.68 1417 1063.68 1434 941.68 1437 C 873.68 1439 818.68 1435 786.68 1426 Z" style="fill: url(&quot;#gradient-2&quot;);"/>
    <path d="M 386.68 1028 C 355.68 939 352.68 729 381.68 616 C 436.68 399 591.68 253 806.68 215 C 910.68 196 957.68 197 1042.68 216 C 1109.68 231 1120.68 237 1278.68 345 C 1298.68 359 1327.68 321 1336.68 270 C 1341.68 239 1347.68 230 1363.68 230 C 1383.68 230 1383.68 234 1378.68 442 C 1374.68 643 1372.68 655 1354.68 658 C 1337.68 661 1332.68 650 1318.68 579 C 1289.68 430 1215.68 329 1093.68 272 C 1044.68 249 1023.68 245 946.68 246 C 835.68 246 781.68 269 704.68 347 C 616.68 437 566.68 568 554.68 739 L 548.68 833 L 473.68 937 C 432.68 993 397.68 1040 394.68 1040 C 392.68 1040 388.68 1034 386.68 1028 Z" style="fill: url(&quot;#gradient-3&quot;);"/>
  </g>
</svg>